<?xml version="1.0" standalone="no"?>
<!DOCTYPE svg PUBLIC "-//W3C//DTD SVG 20010904//EN"
 "http://www.w3.org/TR/2001/REC-SVG-20010904/DTD/svg10.dtd">
<svg version="1.0" xmlns="http://www.w3.org/2000/svg"
 width="500.000000pt" height="500.000000pt" viewBox="0 0 500.000000 500.000000"
 preserveAspectRatio="xMidYMid meet">
<metadata>
Created by potrace 1.16, written by Peter Selinger 2001-2019
</metadata>
<g transform="translate(0.000000,500.000000) scale(0.100000,-0.100000)"
fill="#000000" stroke="none">
<path d="M1579 3339 c-79 -22 -117 -102 -83 -174 15 -32 30 -43 92 -71 44 -21
72 -39 69 -47 -7 -22 -38 -19 -79 8 l-41 27 -40 -41 c-39 -38 -40 -41 -24 -59
9 -10 38 -29 64 -42 91 -45 206 -21 245 50 48 90 5 157 -124 199 -45 15 -51
41 -10 41 15 0 36 -7 46 -15 28 -21 30 -20 66 25 27 34 30 43 19 56 -33 39
-134 61 -200 43z"/>
<path d="M3315 3341 c-75 -19 -105 -54 -105 -122 0 -64 32 -101 111 -130 43
-16 59 -27 57 -38 -5 -25 -31 -24 -72 4 -21 14 -44 24 -51 21 -7 -2 -26 -21
-41 -41 l-28 -37 31 -29 c40 -35 120 -60 170 -52 87 13 133 59 133 134 0 63
-32 101 -103 125 -55 18 -77 31 -77 45 0 15 54 10 79 -7 22 -16 24 -15 57 17
19 18 34 40 34 49 0 38 -127 78 -195 61z"/>
<path d="M1875 3328 c-3 -8 -4 -101 -3 -208 l3 -195 68 -3 67 -3 0 81 0 80 60
0 60 0 0 -80 0 -80 65 0 65 0 -2 208 -3 207 -60 0 -60 0 -5 -65 -5 -65 -57 -3
-57 -3 -3 68 -3 68 -63 3 c-45 2 -64 -1 -67 -10z"/>
<path d="M2455 3321 c-137 -63 -168 -237 -61 -343 83 -83 235 -82 312 4 57 62
76 167 42 233 -55 106 -189 154 -293 106z m149 -132 c20 -16 26 -29 26 -57 -1
-43 -16 -67 -54 -82 -38 -14 -93 10 -107 47 -31 82 65 147 135 92z"/>
<path d="M2837 3334 c-4 -4 -7 -99 -7 -211 l0 -204 158 3 157 3 0 50 0 50 -92
3 c-91 3 -93 3 -93 27 0 24 3 25 66 25 l65 0 -3 48 -3 47 -62 3 c-59 3 -63 4
-63 27 0 25 1 25 91 25 l90 0 -3 53 -3 52 -146 3 c-80 1 -148 -1 -152 -4z"/>
<path d="M1768 2750 c-103 -53 -108 -62 -108 -185 0 -161 8 -171 101 -125 l59
30 0 -424 c0 -348 2 -426 14 -435 9 -8 68 -11 187 -9 l174 3 3 579 c1 419 -1
583 -9 592 -9 11 -49 14 -178 14 l-166 -1 -77 -39z"/>
<path d="M2813 2782 c-15 -10 -542 -919 -549 -949 -13 -51 -4 -53 297 -53
l278 0 3 -87 3 -88 190 0 190 0 3 88 3 87 39 0 c72 0 70 -4 70 156 0 160 -2
164 -74 164 l-36 0 0 335 c0 320 -1 335 -19 345 -22 11 -379 14 -398 2z"/>
</g>
</svg>
